<svg xmlns="http://www.w3.org/2000/svg" width="21" height="20" viewBox="0 0 21 20" fill="none">
  <rect x="20.5" width="20" height="20" rx="10" transform="rotate(90 20.5 0)" fill="#494949"/>
  <path d="M8.85473 10L12.9729 5.88242L12.9729 5.88242C13.0863 5.769 13.15 5.61517 13.15 5.45478C13.15 5.29438 13.0863 5.14055 12.9729 5.02713C12.8594 4.91372 12.7056 4.85 12.5452 4.85C12.3848 4.85 12.231 4.91372 12.1176 5.02713L7.57242 9.5723C7.5724 9.57232 7.57238 9.57234 7.57236 9.57236C7.51618 9.62849 7.47161 9.69514 7.4412 9.7685C7.41078 9.84189 7.39512 9.92056 7.39512 10C7.39512 10.0794 7.41078 10.1581 7.4412 10.2315C7.47161 10.3049 7.51618 10.3715 7.57236 10.4276C7.57238 10.4277 7.5724 10.4277 7.57242 10.4277L12.1176 14.9729C12.1737 15.029 12.2404 15.0736 12.3138 15.104C12.3872 15.1344 12.4658 15.15 12.5452 15.15C12.6246 15.15 12.7033 15.1344 12.7767 15.104C12.85 15.0736 12.9167 15.029 12.9729 14.9729C13.029 14.9167 13.0736 14.85 13.104 14.7767C13.1344 14.7033 13.15 14.6246 13.15 14.5452C13.15 14.4658 13.1344 14.3872 13.104 14.3138C13.0736 14.2404 13.029 14.1737 12.9729 14.1176L12.9729 14.1176L8.85473 10Z" fill="white" stroke="white" stroke-width="0.3"/>
</svg>